<svg width="48" height="48" viewBox="0 0 48 48" fill="none" xmlns="http://www.w3.org/2000/svg">
<rect width="48" height="48" rx="4" fill="url(#paint0_linear_450_300)"/>
<path d="M26 38H22V34H26V38Z" fill="#D9D9D9"/>
<path d="M22 34H18V30H22V34Z" fill="#D9D9D9"/>
<path d="M30 34H26V30H30V34Z" fill="#D9D9D9"/>
<path d="M18 30H14V26H18V30Z" fill="#D9D9D9"/>
<path d="M34 30H30V26H34V30Z" fill="#D9D9D9"/>
<path d="M14 26H10V22H14V26Z" fill="#D9D9D9"/>
<path d="M38 26H34V22H38V26Z" fill="#D9D9D9"/>
<path d="M18 22H14V18H18V22Z" fill="#D9D9D9"/>
<path d="M34 22H30V18H34V22Z" fill="#D9D9D9"/>
<path d="M22 18H18V14H22V18Z" fill="#D9D9D9"/>
<path d="M30 18H26V14H30V18Z" fill="#D9D9D9"/>
<path d="M26 14H22V10H26V14Z" fill="#D9D9D9"/>
<defs>
<linearGradient id="paint0_linear_450_300" x1="24" y1="0" x2="24" y2="48" gradientUnits="userSpaceOnUse">
<stop stop-color="#525252"/>
<stop offset="1"/>
</linearGradient>
</defs>
</svg>
